<?xml version="1.0" encoding="UTF-8" standalone="no"?>
<!-- Created with Inkscape (http://www.inkscape.org/) -->

<svg
   xmlns:dc="http://purl.org/dc/elements/1.1/"
   xmlns:cc="http://creativecommons.org/ns#"
   xmlns:rdf="http://www.w3.org/1999/02/22-rdf-syntax-ns#"
   xmlns:svg="http://www.w3.org/2000/svg"
   xmlns="http://www.w3.org/2000/svg"
   xmlns:sodipodi="http://sodipodi.sourceforge.net/DTD/sodipodi-0.dtd"
   xmlns:inkscape="http://www.inkscape.org/namespaces/inkscape"
   width="555.68854"
   height="222.14487"
   id="svg10347"
   sodipodi:version="0.32"
   inkscape:version="0.91 r13725"
   version="1.0"
   sodipodi:docname="book_side.svg"
   inkscape:output_extension="org.inkscape.output.svg.inkscape"
   sodipodi:modified="true">
  <defs
     id="defs10349" />
  <sodipodi:namedview
     id="base"
     pagecolor="#ffffff"
     bordercolor="#ffffff"
     borderopacity="0.0"
     inkscape:pageopacity="0.0"
     inkscape:pageshadow="0"
     inkscape:zoom="0.0109375"
     inkscape:cx="21756.165"
     inkscape:cy="563601.61"
     inkscape:document-units="px"
     inkscape:current-layer="layer1"
     showguides="true"
     inkscape:guide-bbox="true"
     inkscape:window-width="1008"
     inkscape:window-height="615"
     inkscape:window-x="126"
     inkscape:window-y="50"
     showgrid="false"
     inkscape:window-maximized="0"
     objecttolerance="10000"
     fit-margin-top="0"
     fit-margin-left="0"
     fit-margin-right="0"
     fit-margin-bottom="0" />
  <metadata
     id="metadata10352">
    <rdf:RDF>
      <cc:Work
         rdf:about="">
        <dc:format>image/svg+xml</dc:format>
        <dc:type
           rdf:resource="http://purl.org/dc/dcmitype/StillImage" />
        <dc:creator>
          <cc:Agent>
            <dc:title>Michael Sloan</dc:title>
          </cc:Agent>
        </dc:creator>
        <dc:source />
        <dc:contributor>
          <cc:Agent>
            <dc:title>Molumen (old book)</dc:title>
          </cc:Agent>
        </dc:contributor>
        <dc:title>Open Book from above</dc:title>
        <dc:date>2007-04-22</dc:date>
        <cc:license
           rdf:resource="http://web.resource.org/cc/PublicDomain" />
        <dc:language>EN</dc:language>
        <dc:subject>
          <rdf:Bag>
            <rdf:li>Book</rdf:li>
            <rdf:li>Perspective</rdf:li>
            <rdf:li>Lineart</rdf:li>
            <rdf:li>BW</rdf:li>
          </rdf:Bag>
        </dc:subject>
        <dc:description>An open, old-style book, derived from molumen's 'old book', now viewed from above</dc:description>
      </cc:Work>
      <cc:License
         rdf:about="http://web.resource.org/cc/PublicDomain">
        <cc:permits
           rdf:resource="http://web.resource.org/cc/Reproduction" />
        <cc:permits
           rdf:resource="http://web.resource.org/cc/Distribution" />
        <cc:permits
           rdf:resource="http://web.resource.org/cc/DerivativeWorks" />
      </cc:License>
    </rdf:RDF>
  </metadata>
  <g
     inkscape:label="Layer 1"
     inkscape:groupmode="layer"
     id="layer1"
     transform="translate(34.222443,-301.88122)">
    <g
       transform="matrix(2.6132621,0,0,1.8448421,-360.70889,-381.554)"
       id="g14322"
       inkscape:label="Layer 1">
      <path
         sodipodi:nodetypes="cccccccsscccscccccccssccccsccccscccscsccccccccccssccc"
         id="path14407"
         d="m 337.57607,415.86273 c -6.9338,-12.7533 -4.78086,-33.42169 -14.50912,-45.40543 l -1.9526,0.44018 c -40.52424,17.00895 -70.38447,34.26672 -87.47357,48.81226 -9.28601,-4.36555 -49.59253,-1.82869 -91.78001,3.25832 l -16.47963,54.74919 c 1.32561,1.28332 3.20876,5.47453 2.69438,7.70264 -2.00652,0.63234 -3.73645,2.33593 -2.94502,2.69438 0.017,0.007 0.0432,0.0566 0.0627,0.0627 0.10395,0.0306 0.20885,0.006 0.37596,0 21.03208,-0.078 95.81517,-6.03432 99.11126,-6.26601 2.50252,-0.24178 4.42446,-1.30217 5.89005,-2.63173 0.66498,2.12224 2.36149,4.22745 3.63428,4.76218 1.41129,0.59293 3.19926,1.69454 6.57932,-0.0627 3.29611,-1.65562 6.23759,-3.12026 9.587,-4.76218 2.03154,3.87318 4.01298,8.49441 4.95016,11.6548 0.38314,-1.21682 1.58759,-3.79373 1.94247,-5.5141 1.37508,1.7069 3.9375,3.23874 5.3261,4.01024 -2.02547,-3.29837 -4.04515,-8.43947 -6.51664,-12.90798 27.96946,-13.57945 56.72917,-26.74319 77.76125,-39.66388 0.16712,-0.0935 0.27201,-0.19735 0.37596,-0.31331 0.0195,-0.0224 0.0457,-0.04 0.0627,-0.0627 0.79142,-1.09431 -0.93849,-2.87554 -2.94503,-2.69438 -1.06989,-3.39584 0.039,-8.35564 6.24812,-17.86253 z m -1.95588,0.12171 c -46.82736,19.65067 -89.79474,39.89294 -101.199,56.3241 -1.63491,-2.78184 -0.67011,-49.15125 -0.27913,-50.09749 5.11346,-12.37534 59.90341,-39.06378 87.76137,-50.95605 4.98932,-0.0229 11.62417,45.16999 13.71676,44.72944 z m 0.094,0.95246 c -6.39733,10.72723 -7.161,15.56259 -4.38622,19.42008 -0.088,0.0721 -0.23548,0.18412 -0.37595,0.25065 -1.55608,0.73692 -50.84105,25.15355 -76.19476,37.59609 -1.84246,-2.8848 -3.91604,-5.22783 -6.26601,-6.82995 l -6.76729,3.4463 c 1.46673,0.42232 2.70988,-0.16064 4.88749,2.38109 0.77069,0.89913 1.6163,2.22777 2.5064,3.7596 -5.29944,2.58872 -8.70703,4.26214 -9.08572,4.38622 -2.00254,0.65627 -4.86034,-0.0137 -5.38877,-1.87524 -7.10332,-16.83647 76.7952,-50.46358 101.07083,-62.53484 z m -122.5006,1.07847 c 12.24966,-0.15045 18.52416,0.6813 18.92336,5.20334 0.0868,0.75011 0.23735,46.74508 -1.37283,49.17473 -12.51312,-4.39578 -56.64671,-0.35119 -104.03098,4.84732 l 15.7052,-53.64566 c 21.89183,-2.5004 48.26674,-5.47091 70.77525,-5.57973 z m -3.88494,53.81183 c 14.4429,-0.17735 24.15618,1.2181 21.49244,5.95271 -0.52842,1.30119 -3.38624,1.96531 -5.38878,2.31386 -0.37866,0.0659 -95.42472,6.81931 -96.9808,6.95528 -0.14048,0.0123 -0.28796,0.0104 -0.37597,0 2.14042,-2.17398 -0.4093,-6.83824 -1.31586,-9.14382 15.17228,-1.11194 58.49751,-5.7825 82.56897,-6.07803 z"
         style="fill:#000000;fill-opacity:1;fill-rule:nonzero;stroke:none;stroke-opacity:1"
         inkscape:connector-curvature="0" />
    </g>
  </g>
</svg>
